<svg width="23.999999999999993" height="23.999999999999993" xmlns="http://www.w3.org/2000/svg">
 <!-- Icon from HeroIcons by Refactoring UI Inc - https://github.com/tailwindlabs/heroicons/blob/master/LICENSE -->

 <g>
  <title>Layer 1</title>
  <path fill="none" stroke="#ffffff" stroke-linecap="round" stroke-linejoin="round" stroke-width="1.5" d="m19.5,14.25l0,-2.625a3.375,3.375 0 0 0 -3.375,-3.375l-1.5,0a1.125,1.125 0 0 1 -1.125,-1.125l0,-1.5a3.375,3.375 0 0 0 -3.375,-3.375l-1.875,0m2.25,0l-4.875,0c-0.621,0 -1.125,0.504 -1.125,1.125l0,17.25c0,0.621 0.504,1.125 1.125,1.125l12.75,0c0.621,0 1.125,-0.504 1.125,-1.125l0,-9.375a9,9 0 0 0 -9,-9" id="svg_1"/>
 </g>
</svg>